<?xml version="1.0" encoding="UTF-8" standalone="no"?>
<!-- Generator: Adobe Illustrator 18.0.0, SVG Export Plug-In . SVG Version: 6.00 Build 0)  -->

<svg
   version="1.1"
   id="Capa_1"
   x="0px"
   y="0px"
   viewBox="0 0 346.67 320.67"
   style="enable-background:new 0 0 346.67 320.67;"
   xml:space="preserve"
   sodipodi:docname="apple.svg"
   inkscape:version="1.2.2 (732a01da63, 2022-12-09)"
   xmlns:inkscape="http://www.inkscape.org/namespaces/inkscape"
   xmlns:sodipodi="http://sodipodi.sourceforge.net/DTD/sodipodi-0.dtd"
   xmlns="http://www.w3.org/2000/svg"
   xmlns:svg="http://www.w3.org/2000/svg"><defs
   id="defs427" /><sodipodi:namedview
   id="namedview425"
   pagecolor="#ffffff"
   bordercolor="#000000"
   borderopacity="0.25"
   inkscape:showpageshadow="2"
   inkscape:pageopacity="0.0"
   inkscape:pagecheckerboard="0"
   inkscape:deskcolor="#d1d1d1"
   showgrid="false"
   inkscape:zoom="2.5384352"
   inkscape:cx="282.45748"
   inkscape:cy="143.39543"
   inkscape:window-width="1920"
   inkscape:window-height="1017"
   inkscape:window-x="-8"
   inkscape:window-y="-8"
   inkscape:window-maximized="1"
   inkscape:current-layer="Capa_1" />

<path
   style="fill:#000000;stroke-width:0.393943"
   d="m 125.11048,289.52428 c -7.30286,-1.45045 -16.19097,-7.68067 -24.05959,-16.86486 -7.641111,-8.91864 -15.402678,-19.76404 -19.930318,-27.84905 -2.03162,-3.62787 -7.45314,-14.39967 -7.45314,-14.80836 0,-0.11292 -0.63993,-1.65224 -1.42208,-3.42069 -5.15814,-11.66277 -9.38339,-27.26886 -11.26968,-41.62486 -1.21103,-9.21683 -1.21309,-24.14363 -0.004,-32.15617 1.54046,-10.21215 3.60758,-17.00619 7.61562,-25.0304 5.98088,-11.97387 13.62769,-20.86137 23.686037,-27.52905 8.907621,-5.90486 16.706681,-8.931873 26.826311,-10.411968 11.57878,-1.693511 19.26684,-0.395789 38.27188,6.460192 6.90136,2.489629 13.67978,4.362346 15.79244,4.363076 1.72423,5.9e-4 9.76205,-2.312887 16.30885,-4.6941 19.37561,-7.047316 29.09934,-8.622244 41.83486,-6.77588 12.11233,1.756015 20.31356,4.714886 29.10513,10.500653 4.05149,2.666307 10.69523,8.814937 13.53397,12.525397 l 1.75811,2.29798 -4.2069,2.7979 c -5.00583,3.32925 -12.21124,10.32739 -15.50698,15.06092 -6.23065,8.94879 -9.21319,18.20451 -9.64769,29.9397 -0.54117,14.61635 3.03078,26.71218 11.02289,37.32725 2.96145,3.93338 8.62535,9.71877 12.05606,12.31467 3.14853,2.38238 10.32004,6.71172 12.08013,7.2926 l 1.31857,0.43517 -1.52673,4.27992 c -2.09492,5.87273 -4.36513,11.11571 -7.33594,16.94212 -2.44868,4.80239 -8.42614,14.67326 -10.83557,17.89331 -9.68734,12.94649 -12.6245,16.40178 -18.24587,21.46452 -7.87046,7.08833 -15.33107,9.85749 -25.2422,9.36916 -6.42815,-0.31672 -8.45417,-0.86473 -24.08188,-6.5139 -13.72422,-4.96108 -26.05035,-4.55137 -41.91438,1.39322 -14.20586,5.32323 -20.99312,6.51796 -28.52748,5.02153 z"
   id="path491" /><path
   style="fill:#000000;stroke-width:0.393943"
   d="m 171.51266,86.609693 c -0.42623,-1.698243 0.17958,-9.922802 0.99684,-13.533176 2.62711,-11.60567 9.75509,-23.757204 18.75006,-31.964463 6.53116,-5.959208 16.19355,-11.231604 25.40936,-13.864907 2.11429,-0.604133 8.62779,-1.837792 9.70321,-1.837792 0.42841,0 0.53871,1.032863 0.53634,5.022779 -0.002,2.762529 -0.18437,6.175065 -0.40607,7.583413 -3.24626,20.621564 -19.89314,40.803457 -39.37925,47.741542 -2.84254,1.012096 -8.49375,1.879434 -12.30322,1.88827 -2.96754,0.0069 -3.05226,-0.01966 -3.30727,-1.035666 z"
   id="path493" /></svg>
