<?xml version="1.0" encoding="UTF-8" standalone="no"?>
<!-- Generator: Adobe Illustrator 18.0.0, SVG Export Plug-In . SVG Version: 6.00 Build 0)  -->

<svg
   version="1.1"
   id="Capa_1"
   x="0px"
   y="0px"
   viewBox="0 0 346.67 320.67"
   style="enable-background:new 0 0 346.67 320.67;"
   xml:space="preserve"
   sodipodi:docname="huawei.svg"
   inkscape:version="1.2.2 (732a01da63, 2022-12-09)"
   xmlns:inkscape="http://www.inkscape.org/namespaces/inkscape"
   xmlns:sodipodi="http://sodipodi.sourceforge.net/DTD/sodipodi-0.dtd"
   xmlns="http://www.w3.org/2000/svg"
   xmlns:svg="http://www.w3.org/2000/svg"><defs
   id="defs14" /><sodipodi:namedview
   id="namedview12"
   pagecolor="#ffffff"
   bordercolor="#000000"
   borderopacity="0.25"
   inkscape:showpageshadow="2"
   inkscape:pageopacity="0.0"
   inkscape:pagecheckerboard="0"
   inkscape:deskcolor="#d1d1d1"
   showgrid="false"
   inkscape:zoom="1.8456617"
   inkscape:cx="302.8724"
   inkscape:cy="188.55026"
   inkscape:window-width="1920"
   inkscape:window-height="1017"
   inkscape:window-x="-8"
   inkscape:window-y="-8"
   inkscape:window-maximized="1"
   inkscape:current-layer="Capa_1" />

<path
   style="fill:#000000;stroke-width:0.383118"
   d="m 159.74906,175.03302 c -1.15893,-0.64127 -5.98623,-3.16219 -10.72731,-5.60205 -10.12658,-5.21136 -12.06587,-6.25002 -17.10362,-9.16053 -2.07698,-1.19996 -4.37974,-2.51802 -5.11725,-2.92903 -3.23512,-1.80291 -7.91717,-4.66994 -8.62016,-5.27852 -0.84714,-0.73337 -10.36719,-6.49952 -10.73086,-6.49952 -0.7272,0 -9.883523,-6.86414 -14.554953,-10.91128 -1.26429,-1.09533 -3.24693,-2.68897 -4.40586,-3.54143 -5.26991,-3.87628 -11.45643,-11.5237 -13.93063,-17.22023 -2.62895,-6.05283 -3.4177,-12.23359 -2.36855,-18.560308 0.91711,-5.53055 1.73611,-7.77675 5.08241,-13.939073 4.40767,-8.116872 7.58005,-12.573806 12.7238,-17.875922 l 2.46483,-2.540714 3.37703,4.078426 c 1.85737,2.243134 4.441273,5.630054 5.742003,7.52649 3.44709,5.025782 8.8479,12.532465 9.51309,13.222426 1.88761,1.957897 19.34329,28.886305 23.96236,36.966075 0.6023,1.05357 1.19524,2.00179 1.31763,2.10715 0.44467,0.38279 2.63566,4.07391 3.6386,6.12989 1.24053,2.54304 1.22141,2.50741 4.29293,7.99664 1.35065,2.4138 2.7717,4.83458 3.15789,5.37951 0.38618,0.54493 2.80395,5.12846 5.37281,10.18563 2.56886,5.05716 5.26157,10.3097 5.98379,11.67232 0.72223,1.36261 1.31314,2.71003 1.31314,2.99427 0,0.28424 0.57367,1.75844 1.27482,3.276 1.15978,2.51017 1.38948,3.71526 0.70462,3.69665 -0.14048,-0.004 -1.20363,-0.53161 -2.36256,-1.17287 z"
   id="path243" /><path
   style="fill:#000000;stroke-width:0.383118"
   d=""
   id="path245" /><path
   style="fill:#000000;stroke-width:0.383118"
   d=""
   id="path247" /><path
   style="fill:#000000;stroke-width:0.383118"
   d=""
   id="path249" /><path
   style="fill:#000000;stroke-width:0.383118"
   d=""
   id="path251" /><path
   style="fill:#000000;stroke-width:0.383118"
   d="m 103.23911,217.25741 c -3.246783,-0.83101 -7.062803,-2.73672 -10.918883,-5.45285 -3.21059,-2.26147 -10.61457,-9.53874 -11.47924,-11.2828 -0.3082,-0.62165 -1.27629,-2.26346 -2.1513,-3.64847 l -1.59094,-2.51819 12.30394,-0.46575 c 6.76717,-0.25617 19.372483,-0.71336 28.011803,-1.01599 18.19546,-0.63737 24.34368,-0.8639 31.89427,-1.17514 4.82616,-0.19894 5.48692,-0.15254 5.69904,0.40024 0.28436,0.74102 0.78916,0.34068 -8.47632,6.72218 -12.20998,8.40948 -25.47065,16.06452 -31.13199,17.97168 -3.34733,1.12764 -8.76258,1.33475 -12.16038,0.46509 z"
   id="path255" /><path
   style="fill:#000000;stroke-width:0.383118"
   d="m 103.2114,217.04058 c -2.55017,-0.72147 -5.543193,-2.10531 -8.478563,-3.92011 -2.9874,-1.84696 -8.68795,-6.8 -11.34979,-9.86149 -2.07044,-2.38129 -5.80796,-8.21442 -5.476,-8.54637 0.20436,-0.20437 6.00565,-0.44787 43.721743,-1.83522 28.90836,-1.06336 33.13973,-1.13695 33.13973,-0.57633 0,0.81594 -12.98272,9.70195 -22.86134,15.64742 -6.31339,3.79973 -13.78394,7.66447 -16.7914,8.68669 -2.63886,0.89694 -9.35814,1.12576 -11.90438,0.40541 z"
   id="path257" /><path
   style="fill:#000000;stroke-width:0.383118"
   d="m 103.04755,216.97747 c -2.99021,-0.79711 -7.785063,-3.2632 -10.914923,-5.61378 -4.63062,-3.47767 -10.12942,-9.28695 -12.37778,-13.07667 -1.11046,-1.87175 -1.9559,-3.46631 -1.87874,-3.54347 0.26403,-0.26403 7.00381,-0.56024 38.476473,-1.69101 33.67964,-1.21006 38.41594,-1.3106 38.41594,-0.81552 0,0.60481 -1.76829,1.93611 -9.3864,7.06674 -14.6264,9.85057 -26.86613,16.65933 -31.84293,17.71372 -3.32563,0.70456 -7.76198,0.68764 -10.49164,-0.04 z"
   id="path259" /><path
   style="fill:#000000;stroke-width:0.383118"
   d=""
   id="path261" /><path
   style="fill:#000000;stroke-width:0.383118"
   d=""
   id="path263" /><path
   style="fill:#000000;stroke-width:0.0957796"
   d="m 109.59105,192.37571 c 1.20204,-0.0152 3.14157,-0.0152 4.31008,4e-5 1.1685,0.0152 0.18502,0.0277 -2.18553,0.0276 -2.37054,-2e-5 -3.32659,-0.0125 -2.12455,-0.0277 z"
   id="path265" /><path
   style="fill:#000000;stroke-width:0.0957796"
   d="m 109.73469,192.47149 c 1.17568,-0.0153 3.07211,-0.0152 4.2143,4e-5 1.14218,0.0153 0.18026,0.0277 -2.13761,0.0277 -2.31786,-2e-5 -3.25238,-0.0125 -2.07669,-0.0278 z"
   id="path267" /><path
   style="fill:#000000;stroke-width:0.0957796"
   d="m 109.87832,192.75883 c 1.14933,-0.0153 3.00267,-0.0153 4.11853,4e-5 1.11586,0.0153 0.1755,0.0278 -2.08969,0.0278 -2.26519,-2e-5 -3.17816,-0.0126 -2.02884,-0.0278 z"
   id="path269" /><path
   style="fill:#000000;stroke-width:0.0957796"
   d="m 109.87832,192.85461 c 1.14933,-0.0153 3.00267,-0.0153 4.11853,4e-5 1.11586,0.0153 0.1755,0.0278 -2.08969,0.0278 -2.26519,-2e-5 -3.17816,-0.0125 -2.02884,-0.0278 z"
   id="path271" /><path
   style="fill:#000000;stroke-width:0.541811"
   d="m 103.21502,185.48661 c -5.661933,-0.19503 -11.025863,-0.52149 -11.919853,-0.72545 -11.33115,-2.58524 -20.52072,-8.02554 -27.17447,-16.0875 -2.0497,-2.48349 -5.06329,-7.17593 -5.06329,-7.88399 0,-0.37647 -0.19483,-0.68449 -0.43297,-0.68449 -0.23813,0 -0.74187,-0.91431 -1.11943,-2.03179 -0.37756,-1.11749 -0.88724,-2.51942 -1.13263,-3.11542 -0.24539,-0.59599 -0.89976,-2.66842 -1.45417,-4.60539 -1.42336,-4.97294 -1.42207,-16.79483 0.002,-21.45903 l 1.01035,-3.30836 4.94958,2.69826 c 2.72226,1.48405 6.41246,3.48305 8.20044,4.44221 1.78797,0.95917 5.56711,3.04281 8.39807,4.63032 2.83096,1.5875 6.61009,3.63583 8.39807,4.55185 1.78798,0.91602 3.37277,1.80799 3.52177,1.98215 0.149,0.17416 1.00235,0.69102 1.89634,1.14857 1.98109,1.01393 19.034263,10.75981 22.656623,12.94824 1.43528,0.86712 2.83722,1.57658 3.11542,1.57658 0.27819,0 0.5058,0.24381 0.5058,0.54181 0,0.298 0.3317,0.54181 0.73711,0.54181 0.40541,0 1.68544,0.64586 2.84451,1.43525 1.90418,1.29684 3.89129,2.49548 6.9837,4.21263 0.59599,0.33094 1.69316,0.98782 2.43815,1.45973 0.74499,0.47191 3.67077,2.27011 6.50173,3.99599 11.57831,7.05866 19.70589,12.75544 19.07948,13.37317 -0.53283,0.52545 -40.30818,0.79805 -52.94268,0.36285 z"
   id="path355" /><path
   style="fill:#000000;stroke-width:0.541811"
   d="m 169.13506,164.85889 c -1.84353,-2.76354 -3.58672,-5.39034 -3.87375,-5.83733 -0.28704,-0.447 -1.62554,-2.44769 -2.97446,-4.446 -1.34891,-1.9983 -2.45257,-3.77583 -2.45257,-3.95007 0,-0.17423 -0.45808,-0.97741 -1.01796,-1.78483 -1.51078,-2.17877 -9.58554,-15.52554 -11.86926,-19.61871 -0.74818,-1.34099 -2.24337,-4.02295 -3.32263,-5.95993 -1.07926,-1.93697 -2.42117,-4.55798 -2.98201,-5.82446 -0.56085,-1.26649 -1.22651,-2.3027 -1.47925,-2.3027 -0.25274,0 -0.45952,-0.25447 -0.45952,-0.56548 0,-0.31101 -1.70671,-4.0626 -3.79268,-8.33686 -2.08597,-4.27425 -3.79268,-7.923488 -3.79268,-8.109398 0,-0.18591 -0.51193,-1.49349 -1.13762,-2.90572 -2.04986,-4.62672 -2.49095,-5.87073 -4.46443,-12.591211 -2.70365,-9.206977 -2.79745,-9.829233 -2.73607,-18.150671 0.0538,-7.29448 0.19916,-8.487998 1.41864,-11.648939 3.6758,-9.527837 9.87834,-16.58513 18.10046,-20.594835 4.94412,-2.411113 5.02003,-2.435668 11.57509,-3.744213 3.12896,-0.624615 6.19429,-1.272524 6.81184,-1.439797 0.97459,-0.263981 1.42904,0.354928 3.44228,4.688008 2.99799,6.452564 3.95269,9.284264 5.96625,17.696155 2.61243,10.913754 2.60998,10.899666 4.34619,24.931673 2.71472,21.94021 2.54992,52.382528 -0.47572,87.876208 -0.31601,3.70701 -0.77789,6.94335 -1.02641,7.19187 -0.24853,0.24852 -1.96021,-1.80922 -3.80373,-4.57276 z"
   id="path357" /><path
   style="fill:#000000;stroke-width:0.541811"
   d="m 187.28604,168.95476 c -0.19866,-0.19866 -0.36262,-1.72251 -0.36435,-3.38632 -0.002,-1.66381 -0.24512,-4.488 -0.54087,-6.27598 -0.29576,-1.78797 -0.66551,-5.32329 -0.82166,-7.85626 -0.15616,-2.53297 -0.5223,-8.50227 -0.81365,-13.26512 -0.70392,-11.50717 -0.68381,-42.718968 0.033,-51.210398 0.97215,-11.516408 2.47769,-22.705135 4.15559,-30.883234 0.45855,-2.234971 0.95374,-4.673121 1.10042,-5.418111 1.12034,-5.690042 4.41024,-15.04147 7.20071,-20.467765 1.33986,-2.605479 1.96661,-3.331589 2.68021,-3.105103 0.51226,0.162587 2.85811,0.682445 5.21298,1.155239 9.06621,1.820249 10.52074,2.265689 14.46285,4.429148 2.89496,1.588776 3.63757,2.119996 7.22304,5.166951 2.29422,1.949639 6.42809,7.432261 8.11723,10.765623 2.79287,5.511456 3.1559,7.299662 3.1673,15.601184 0.0112,8.161414 -0.40902,10.950464 -2.81629,18.692483 -2.23551,7.189615 -2.70475,8.553985 -3.91311,11.378035 -0.63754,1.48998 -1.56356,3.68432 -2.05783,4.8763 -1.15082,2.775338 -11.09867,22.667988 -11.51526,23.026968 -0.1729,0.149 -0.94313,1.48998 -1.71161,2.97996 -0.76848,1.48998 -1.9176,3.56241 -2.5536,4.6054 -0.636,1.04298 -1.30329,2.32301 -1.48287,2.84451 -0.17957,0.52149 -0.5123,0.94817 -0.73939,0.94817 -0.22709,0 -0.73305,0.79239 -1.12436,1.76088 -0.71701,1.77459 -3.17352,5.86386 -3.82436,6.36628 -0.19302,0.149 -1.04865,1.41098 -1.90141,2.80441 -0.85276,1.39342 -2.86907,4.68492 -4.48068,7.31444 -1.61162,2.62953 -3.13546,4.86223 -3.38632,4.96156 -0.25087,0.0993 -0.45612,0.39984 -0.45612,0.66779 0,0.26795 -1.34745,2.50293 -2.99433,4.9666 -4.95941,7.41909 -4.97503,7.43658 -5.85525,6.55636 z"
   id="path359" /><path
   style="fill:#000000;stroke-width:0.541811"
   d="m 197.98069,175.73474 c -0.27839,-0.45044 1.83598,-5.09152 8.35464,-18.33862 1.39307,-2.83096 2.68494,-5.26911 2.87083,-5.41811 0.18589,-0.149 1.17186,-1.97761 2.19105,-4.06358 2.06439,-4.2252 4.19861,-8.11404 8.11188,-14.78098 1.44841,-2.4676 2.63346,-4.72289 2.63346,-5.01175 0,-0.28885 0.18754,-0.52519 0.41675,-0.52519 0.22921,0 1.26411,-1.52384 2.29977,-3.38632 1.03566,-1.86247 2.1791,-3.87395 2.54099,-4.46994 0.36188,-0.59599 1.07885,-1.87602 1.59326,-2.84451 0.51441,-0.96848 1.13395,-1.76088 1.37675,-1.76088 0.2428,0 0.44146,-0.22071 0.44146,-0.49047 0,-0.46589 3.99813,-7.2265 5.6377,-9.53304 0.42365,-0.59599 2.61715,-3.88749 4.87444,-7.314448 2.25728,-3.42695 4.29349,-6.47464 4.52492,-6.77264 0.23142,-0.29799 1.38433,-1.88279 2.56203,-3.52177 1.17769,-1.63898 2.28593,-3.10187 2.46275,-3.250868 0.17681,-0.148998 1.51702,-1.97761 2.97825,-4.063583 1.46122,-2.085972 5.329,-7.301285 8.59507,-11.589583 l 5.9383,-7.796907 1.93755,2.132898 c 4.02497,4.430801 5.29372,5.973919 7.72647,9.397331 4.06619,5.722025 6.84706,11.08116 8.90267,17.156682 1.23458,3.64891 1.4427,5.19568 1.4824,11.017498 0.0476,6.98265 -0.31968,8.66494 -3.31217,15.17071 -0.86714,1.8852 -5.27347,8.44644 -6.36762,9.48169 -3.50546,3.31679 -7.47751,6.86732 -9.40236,8.40458 -1.30148,1.03941 -2.64247,2.14249 -2.97996,2.45129 -0.3375,0.30879 -1.58868,1.28405 -2.78043,2.16724 -1.19174,0.88319 -2.63965,2.03247 -3.21758,2.55396 -0.57792,0.5215 -1.3584,0.94817 -1.7344,0.94817 -0.37599,0 -0.87861,0.32364 -1.11691,0.7192 -0.2383,0.39555 -1.46949,1.2938 -2.73598,1.9961 -1.26648,0.70231 -2.3027,1.47584 -2.3027,1.71896 0,0.24312 -0.32841,0.44204 -0.72981,0.44204 -0.40139,0 -1.29206,0.48763 -1.97924,1.08362 -0.68719,0.596 -1.43852,1.08363 -1.66964,1.08363 -0.23111,0 -0.74239,0.31401 -1.13617,0.69782 -0.39378,0.3838 -1.56932,1.12198 -2.6123,1.64041 -2.19299,1.09004 -3.94615,2.13259 -4.33449,2.57759 -0.149,0.17073 -0.63663,0.47034 -1.08362,0.66578 -0.447,0.19546 -1.78798,0.96842 -2.97996,1.71769 -1.19199,0.74928 -2.53297,1.53255 -2.97996,1.74061 -2.04932,0.95389 -7.33303,4.19546 -7.49506,4.59824 -0.0993,0.24692 -0.6276,0.44894 -1.17392,0.44894 -0.54633,0 -1.07459,0.18287 -1.17393,0.40636 -0.43035,0.96831 -24.79866,13.09101 -25.15518,12.51415 z"
   id="path361" /><path
   style="fill:#000000;stroke-width:0.541811"
   d="m 204.26279,184.63684 c 0,-0.24505 0.84206,-0.89903 1.87125,-1.45329 1.02919,-0.55425 2.3416,-1.44593 2.91648,-1.98152 0.57487,-0.53557 3.45099,-2.48629 6.39137,-4.33492 2.94037,-1.84864 6.00675,-3.81627 6.81418,-4.37253 0.80742,-0.55625 1.72173,-1.01137 2.03179,-1.01137 0.31006,0 0.56375,-0.24381 0.56375,-0.54181 0,-0.298 0.24132,-0.54181 0.53627,-0.54181 0.29495,0 2.24796,-1.09717 4.34003,-2.43815 2.09207,-1.34098 3.9402,-2.43815 4.10696,-2.43815 0.16675,0 1.32238,-0.69671 2.56806,-1.54825 2.26874,-1.55089 8.49267,-5.18386 12.55927,-7.33098 1.19199,-0.62935 2.24852,-1.32714 2.34785,-1.55063 0.0993,-0.2235 0.50151,-0.40636 0.89372,-0.40636 0.39222,0 1.9812,-0.85335 3.53107,-1.89634 1.54987,-1.04299 3.03253,-1.89634 3.29479,-1.89634 0.26227,0 1.76161,-0.82042 3.33188,-1.82317 1.57026,-1.00274 4.0741,-2.47871 5.56408,-3.27994 1.48998,-0.80122 3.07478,-1.68601 3.52177,-1.9662 1.55711,-0.97604 11.51849,-6.47597 11.72917,-6.47597 0.11671,0 1.12167,-0.5703 2.23323,-1.26733 1.11157,-0.69703 4.21536,-2.4373 6.89733,-3.86727 2.68196,-1.42997 6.5981,-3.52164 8.70253,-4.64816 l 3.82622,-2.04822 0.77917,3.34189 c 1.14769,4.9225 1.01532,17.46243 -0.23545,22.30528 -2.09074,8.09503 -7.16669,16.38212 -13.67119,22.31981 -2.2027,2.01075 -4.67579,4.00314 -5.49577,4.42754 -0.81998,0.42439 -1.61277,0.91927 -1.76177,1.09972 -0.32721,0.3963 -4.51744,2.45374 -6.77264,3.32543 -6.07153,2.34679 -5.62637,2.31873 -40.22947,2.5361 -18.25226,0.11467 -33.18593,0.008 -33.18593,-0.23706 z"
   id="path363" /><path
   style="fill:#000000;stroke-width:0.541811"
   d="m 297.99611,259.79842 v -20.04701 h 2.64133 c 1.45273,0 3.40325,0.15238 4.33448,0.33863 l 1.69316,0.33863 v 19.70838 19.70838 h -4.33449 -4.33448 z"
   id="path365" /><path
   style="fill:#000000;stroke-width:0.541811"
   d="m 266.98289,279.54319 c -6.02768,-1.46096 -8.70835,-3.56482 -11.69619,-9.17945 -1.36406,-2.56331 -1.43937,-3.10259 -1.39974,-10.02351 0.0381,-6.64759 0.16873,-7.59361 1.43324,-10.37641 1.85282,-4.07752 4.95921,-7.0882 8.88596,-8.61222 2.82993,-1.09832 4.37812,-1.26016 14.14929,-1.47905 l 10.97168,-0.24579 v 3.26843 3.26844 l -9.34624,0.19976 c -11.6057,0.24805 -13.21088,0.765 -15.28225,4.92169 -2.47811,4.97292 -3.17063,4.68082 11.48957,4.84631 l 12.86801,0.14526 0.16131,3.38632 0.16131,3.38632 H 276.34952 263.3202 v 1.78153 c 0,0.97984 0.54858,2.86941 1.21907,4.19904 1.95893,3.88467 3.25329,4.25716 14.89981,4.28781 l 9.88805,0.026 v 3.52177 3.52177 l -9.61715,-0.0451 c -6.21322,-0.0292 -10.71789,-0.31193 -12.72709,-0.79891 z"
   id="path367" /><path
   style="fill:#000000;stroke-width:0.541811"
   d="m 196.68686,278.62635 c -0.35111,-0.96848 -1.6193,-4.56475 -2.81819,-7.99171 -1.19889,-3.42695 -2.49168,-6.96227 -2.87286,-7.85626 -0.38119,-0.89399 -0.99007,-2.47879 -1.35308,-3.52177 -0.36301,-1.04299 -0.85143,-2.38397 -1.08539,-2.97996 -0.23395,-0.59599 -0.73548,-2.18079 -1.1145,-3.52177 -0.37902,-1.34099 -0.9738,-2.92578 -1.32174,-3.52178 -0.34793,-0.59599 -0.95492,-2.30269 -1.34884,-3.79267 -0.39393,-1.48998 -0.92411,-2.94068 -1.17817,-3.22378 -0.25406,-0.2831 -0.46193,-0.95359 -0.46193,-1.48998 0,-0.86133 0.5222,-0.97382 4.46994,-0.96295 l 4.46994,0.0123 2.63543,8.25032 c 1.44948,4.53767 3.18358,9.8351 3.85354,11.77208 0.66996,1.93697 1.67836,4.96553 2.24087,6.73013 0.56252,1.7646 1.28783,3.29553 1.61182,3.40207 0.34544,0.1136 1.31712,-2.55773 2.34951,-6.45923 0.96825,-3.65911 1.95574,-7.26247 2.19442,-8.00746 0.23867,-0.74499 1.35381,-4.58508 2.47808,-8.53352 l 2.04412,-7.179 h 5.26563 c 5.93634,0 5.43476,-0.38705 7.02145,5.41811 0.36652,1.34098 0.86074,2.92578 1.09827,3.52177 0.39447,0.98982 2.47631,7.59843 5.46179,17.33796 0.63941,2.08597 1.35107,3.99963 1.58146,4.25257 0.36067,0.39598 1.21833,-2.03991 3.21424,-9.12887 0.93448,-3.31906 3.42072,-11.41415 3.82733,-12.46166 0.23135,-0.59599 0.95005,-2.85128 1.59712,-5.01175 l 1.17648,-3.92813 h 4.62544 c 4.18501,0 4.59018,0.0903 4.25522,0.94817 -0.71042,1.81949 -7.48657,22.09186 -7.92326,23.70423 -0.24213,0.89399 -1.53506,4.79503 -2.87317,8.66898 l -2.43294,7.04355 -5.58438,0.14795 -5.58437,0.14796 -1.79919,-5.83697 c -0.98956,-3.21034 -2.00566,-6.56842 -2.25802,-7.46241 -0.61755,-2.18775 -2.50184,-8.28312 -3.18236,-10.29441 -0.30248,-0.89399 -0.84781,-2.66165 -1.21186,-3.92813 -0.76444,-2.65943 -1.40392,-2.93294 -1.90017,-0.81272 -0.1918,0.81949 -0.70709,2.83096 -1.14509,4.46994 -0.43799,1.63898 -1.01283,4.03247 -1.27742,5.31886 -0.26458,1.2864 -0.63226,2.58356 -0.81707,2.88257 -0.1848,0.29902 -0.81393,2.41611 -1.39806,4.70465 -0.58413,2.28853 -1.45324,5.68482 -1.93134,7.54729 l -0.86929,3.38632 h -5.54551 -5.54551 z"
   id="path369" /><path
   style="fill:#000000;stroke-width:0.541811"
   d="m 141.4127,280.16125 c 0,-0.32637 1.99155,-4.93597 3.76478,-8.71389 3.04013,-6.47707 5.32572,-11.42201 6.26072,-13.54528 1.79958,-4.08658 2.9045,-6.51013 5.61963,-12.3262 l 2.71905,-5.82447 h 4.5918 4.5918 l 1.93863,4.08426 c 1.06625,2.24634 1.93863,4.16941 1.93863,4.27348 0,0.19153 4.18584,9.24245 7.03475,15.21104 2.76019,5.78273 7.59415,16.45423 7.59415,16.76493 0,0.16617 -2.19433,0.30212 -4.8763,0.30212 -2.79037,0 -4.8763,-0.2249 -4.8763,-0.52575 0,-0.28917 -0.6101,-1.85957 -1.35577,-3.48979 -0.74568,-1.63021 -1.593,-3.58796 -1.88293,-4.35054 l -0.52715,-1.38652 h -9.90703 -9.90703 l -1.88521,4.8763 -1.88521,4.8763 h -4.4755 c -2.46153,0 -4.47551,-0.10169 -4.47551,-0.22599 z m 29.2578,-17.03744 c 0,-0.52095 -2.29487,-6.1412 -4.62103,-11.3171 -0.83703,-1.86248 -1.84643,-3.38632 -2.2431,-3.38632 -0.39667,0 -0.72123,0.25891 -0.72123,0.57536 0,0.31645 -0.57828,1.84029 -1.28508,3.38632 -1.70298,3.72508 -4.13303,10.00029 -4.13303,10.67292 0,0.32382 2.57454,0.53611 6.50174,0.53611 3.57595,0 6.50173,-0.21028 6.50173,-0.46729 z"
   id="path371" /><path
   style="fill:#000000;stroke-width:0.541811"
   d="m 110.82137,279.52119 c -3.57287,-0.97235 -6.75981,-3.33536 -8.41907,-6.24246 -1.34595,-2.35816 -1.35558,-2.4718 -1.5205,-17.95025 l -0.16597,-15.57707 h 4.36501 4.36501 v 13.03445 c 0,13.58702 0.4274,17.22708 2.26129,19.25879 1.3947,1.54514 4.48367,2.3879 8.63779,2.35664 4.23779,-0.0319 6.80312,-1.19485 8.30869,-3.76665 1.03099,-1.76113 1.1221,-2.92969 1.27791,-16.38978 l 0.16777,-14.49345 h 4.30217 4.30218 l -0.005,15.03526 c -0.005,14.61003 -0.0411,15.11206 -1.26991,17.75091 -2.55406,5.4847 -8.09091,7.88276 -17.95908,7.77828 -3.27795,-0.0347 -7.16955,-0.39231 -8.64798,-0.79467 z"
   id="path373" /><path
   style="fill:#000000;stroke-width:0.541811"
   d="m 53.886207,279.70738 c -0.14348,-0.37393 -0.19679,-9.45604 -0.11844,-20.18247 l 0.14244,-19.5026 4.45571,-0.15713 4.45571,-0.15714 0.14968,8.28431 0.14969,8.2843 h 10.29441 10.29441 l 0.14956,-8.26262 0.14957,-8.26262 h 4.32037 4.32038 l 0.0634,5.01175 c 0.0891,7.03958 0.0938,24.05338 0.008,30.34142 l -0.0718,5.28266 h -4.33449 -4.33449 v -8.66898 -8.66897 h -10.56527 -10.56532 v 8.66897 8.66898 h -4.35149 c -2.99026,0 -4.43311,-0.21267 -4.61239,-0.67986 z"
   id="path375" /><path
   style="fill:#000000;stroke-width:0.541811"
   d="m 245.16952,216.79071 c -0.89398,-0.33944 -2.45529,-1.0418 -3.46956,-1.56079 -1.01427,-0.519 -2.15207,-0.94363 -2.52845,-0.94363 -0.37638,0 -0.76559,-0.18286 -0.86493,-0.40636 -0.0993,-0.2235 -1.15586,-0.89062 -2.34784,-1.48249 -3.71109,-1.84271 -8.66052,-4.77759 -8.84958,-5.24756 -0.0993,-0.24692 -0.42067,-0.44895 -0.71408,-0.44895 -0.46805,0 -17.37497,-11.11577 -20.23331,-13.30278 -0.92703,-0.7093 -0.96562,-0.89952 -0.27091,-1.33564 0.44554,-0.27971 1.90725,-0.40454 3.24823,-0.2774 1.34098,0.12714 7.80208,0.36959 14.35799,0.53879 6.55592,0.16919 18.01522,0.54675 25.46512,0.83901 7.44991,0.29226 18.35034,0.68026 24.2232,0.86221 l 10.67791,0.33083 -2.73412,4.0518 c -3.18852,4.72517 -10.79737,12.68016 -13.33905,13.94586 -0.96849,0.48229 -1.76089,1.11444 -1.76089,1.40478 0,0.29034 -0.24647,0.5279 -0.54771,0.5279 -0.30125,0 -1.58128,0.45674 -2.84451,1.01497 -1.26324,0.55824 -3.30034,1.28969 -4.5269,1.62544 -2.80143,0.76684 -10.78371,0.68296 -12.94061,-0.13599 z"
   id="path377" /></svg>
