<?xml version="1.0" encoding="UTF-8" standalone="no"?>
<svg
   width="155.604"
   height="138.406"
   viewBox="0 0 155.604 138.406"
   version="1.1"
   id="svg514"
   sodipodi:docname="motorola.svg"
   inkscape:version="1.2.2 (732a01da63, 2022-12-09)"
   xmlns:inkscape="http://www.inkscape.org/namespaces/inkscape"
   xmlns:sodipodi="http://sodipodi.sourceforge.net/DTD/sodipodi-0.dtd"
   xmlns="http://www.w3.org/2000/svg"
   xmlns:svg="http://www.w3.org/2000/svg">
  <defs
     id="defs518" />
  <sodipodi:namedview
     id="namedview516"
     pagecolor="#ffffff"
     bordercolor="#000000"
     borderopacity="0.25"
     inkscape:showpageshadow="2"
     inkscape:pageopacity="0.0"
     inkscape:pagecheckerboard="0"
     inkscape:deskcolor="#d1d1d1"
     showgrid="false"
     inkscape:zoom="3.0237127"
     inkscape:cx="64.820973"
     inkscape:cy="68.128165"
     inkscape:window-width="1920"
     inkscape:window-height="1017"
     inkscape:window-x="-8"
     inkscape:window-y="-8"
     inkscape:window-maximized="1"
     inkscape:current-layer="svg514" />
  <path
     style="fill:#000000;stroke-width:0.16536"
     d="m 74.577189,108.95242 c -4.25022,-0.30774 -8.76405,-1.11529 -12.38773,-2.21623 C 46.216319,101.88325 33.38495,89.799768 27.54366,74.109746 26.30577,70.784726 25.24084,66.497376 24.71803,62.733983 24.35637,60.130528 24.21379,53.901703 24.45502,51.243347 25.9562,34.700375 34.643079,20.162415 48.450369,11.085875 c 5.48153,-3.6034075 11.63648,-6.1544955 18.15685,-7.525598 4.12937,-0.8683241 6.14774,-1.0642715 10.94644,-1.0627021 4.68694,0.00153 6.76265,0.19181 10.59903,0.9715996 C 108.09959,7.523609 124.06435,22.648202 129.1438,42.30305 c 1.20603,4.66673 1.66004,8.315292 1.66366,13.369554 0.006,8.810986 -1.82421,16.443507 -5.83432,24.327022 -3.65258,7.180619 -8.92592,13.437369 -15.42239,18.298458 -7.70295,5.763856 -16.148621,9.159826 -25.713421,10.339246 -2.05999,0.25401 -7.53213,0.44021 -9.26014,0.31509 z M 45.180859,82.101054 c 1.85496,-7.621151 4.56813,-14.790392 7.05138,-18.632473 3.17815,-4.917208 8.31061,-7.193393 12.66011,-5.614611 1.39837,0.507583 2.71641,1.423874 4.20254,2.921574 2.4985,2.517961 4.47912,5.657375 6.99664,11.090129 0.7543,1.627758 1.41659,2.959557 1.47176,2.959557 0.0552,0 0.38003,-0.651103 0.72191,-1.446896 0.76012,-1.769337 2.88912,-5.906211 4.02337,-7.817831 1.68138,-2.833743 3.89467,-5.384227 5.79906,-6.682551 4.42471,-3.016559 10.1565,-1.586204 13.986411,3.490272 2.59696,3.44224 5.40709,10.323391 7.44716,18.235864 l 0.53519,2.075725 2.02366,0.04653 c 1.87606,0.04314 2.01709,0.02505 1.93339,-0.24804 -0.0497,-0.162014 -4.41152,-14.470025 -9.69303,-31.79558 C 92.718669,12.55859 93.597029,15.388275 93.439259,15.564277 c -0.0714,0.07969 -3.65526,11.846148 -7.96405,26.147689 -4.30878,14.30154 -7.87754,26.002801 -7.93056,26.002801 -0.053,0 -3.63656,-11.738467 -7.96343,-26.085481 -4.32688,-14.347015 -7.92739,-26.071525 -8.00114,-26.054468 -0.0971,0.02245 -20.56317,66.835014 -20.56991,67.151424 -4.9e-4,0.02554 0.90595,0.02554 2.01442,0 l 2.0154,-0.04643 z"
     id="path520" />
  <path
     style="fill:#000000;stroke-width:0.16536"
     d="m 0.19878441,130.9106 0.0493,-7.41272 0.70019,-1.41264 C 3.4455544,117.04699 9.7687044,115.80441 13.972574,119.5258 l 0.82645,0.73159 0.83771,-0.76459 c 1.40173,-1.27938 3.60844,-2.17015 5.37615,-2.17015 3.75131,0 7.24194,2.65259 8.16769,6.20677 0.20816,0.79921 0.25348,2.20854 0.25348,7.88354 v 6.91037 h -1.90164 -1.90163 v -6.74973 c 0,-7.8477 -0.022,-8.00506 -1.2998,-9.28282 -2.15947,-2.15947 -5.75672,-1.61117 -7.13493,1.08752 l -0.41201,0.80678 -0.048,7.06912 -0.048,7.06913 h -1.88664 -1.88664 l -0.0496,-6.98645 c -0.0491,-6.90682 -0.054,-6.99524 -0.42993,-7.75842 -1.44719,-2.9378 -5.5051096,-3.4506 -7.4885196,-0.94633 -0.96079,1.21309 -0.97793,1.3682 -0.97793,8.84956 v 6.84164 h -1.90955 -1.90954999 z"
     id="path522" />
  <path
     style="fill:#000000;stroke-width:0.16536"
     d="m 41.185904,138.47407 c -2.34039,-0.45909 -4.61961,-1.73152 -6.13372,-3.42431 -0.95297,-1.06543 -2.02,-3.106 -2.39202,-4.57442 -0.32027,-1.26421 -0.32027,-3.70977 0,-4.97398 1.13492,-4.47979 5.05939,-7.80407 9.59548,-8.12797 3.21351,-0.22946 6.60046,1.17489 8.74596,3.6264 0.9462,1.08116 1.96273,3.01162 2.32541,4.41612 0.35397,1.37079 0.35251,3.77963 -0.003,5.1569 -0.74837,2.89822 -2.92431,5.6024 -5.53497,6.87866 -2.1487,1.05043 -4.55858,1.42364 -6.60303,1.0226 z m 3.79191,-3.99165 c 1.7959,-0.53643 3.32578,-1.85082 4.18446,-3.59505 0.49728,-1.01011 0.52829,-1.18009 0.52829,-2.89554 0,-1.69282 -0.0362,-1.89891 -0.5096,-2.89775 -1.27167,-2.68332 -4.26812,-4.28448 -7.14964,-3.82042 -2.98755,0.48113 -5.17734,2.66761 -5.69432,5.68571 -0.61216,3.57377 2.01723,7.19944 5.58606,7.70262 1.0798,0.15224 2.15562,0.089 3.05475,-0.17957 z"
     id="path524" />
  <path
     style="fill:#000000;stroke-width:0.16536"
     d="m 62.870694,138.39664 c -2.98564,-0.80362 -5.29272,-3.09949 -6.07748,-6.04792 -0.19195,-0.72121 -0.23667,-2.7109 -0.23826,-10.6027 l -0.002,-9.71487 h 1.90163 1.90164 v 2.64575 2.64575 h 2.64575 2.64576 v 1.90164 1.90164 h -2.64576 -2.64575 v 4.84809 c 0,5.58586 0.0872,6.12556 1.18206,7.31331 0.83699,0.90803 1.77867,1.36694 3.08511,1.50349 l 1.02434,0.10707 v 1.87808 1.87808 l -0.95082,-0.0109 c -0.52295,-0.006 -1.34477,-0.11692 -1.82626,-0.24652 z"
     id="path526" />
  <path
     style="fill:#000000;stroke-width:0.16536"
     d="m 75.817384,138.40934 c -4.83585,-1.06458 -8.18412,-4.99005 -8.47071,-9.93099 -0.24599,-4.24081 2.24096,-8.31501 6.18179,-10.12723 3.03634,-1.39627 6.10062,-1.3456 9.15135,0.15134 1.10841,0.54388 1.68686,0.97274 2.73618,2.02863 2.00407,2.0166 2.95629,4.06988 3.14919,6.79059 0.3623,5.11008 -3.38358,10.0247 -8.44845,11.08443 -1.40696,0.29439 -2.97143,0.29556 -4.29935,0.003 z m 3.20061,-3.73159 c 4.49865,-0.72997 6.96513,-5.48566 5.01092,-9.6617 -1.93484,-4.13465 -7.6101,-5.09209 -10.86693,-1.83329 -1.02371,1.02433 -1.65583,2.28362 -1.91422,3.81343 -0.26458,1.5665 0.10225,3.28144 0.99852,4.66814 1.23171,1.90569 2.94147,2.88003 5.55542,3.16586 0.0909,0.01 0.63828,-0.0587 1.21629,-0.15244 z"
     id="path528" />
  <path
     style="fill:#000000;stroke-width:0.16536"
     d="m 91.443874,131.73931 c 0,-3.95335 0.0707,-6.97605 0.17687,-7.5652 0.26509,-1.47053 1.18685,-3.20408 2.30235,-4.33001 1.69319,-1.70902 3.7418,-2.51422 6.408856,-2.519 l 1.36422,-0.002 v 1.87911 1.8791 l -1.52958,0.0807 c -2.305256,0.12157 -3.641496,0.91245 -4.409986,2.61016 -0.32141,0.71003 -0.337,1.06034 -0.34047,7.64788 l -0.004,6.90377 h -1.98431 -1.98432 z"
     id="path530" />
  <path
     style="fill:#000000;stroke-width:0.16536"
     d="m 111.4709,138.31589 c -3.22441,-0.84442 -5.56139,-2.72183 -7.03998,-5.65554 -1.55087,-3.07712 -1.40899,-7.01758 0.36136,-10.03611 1.78237,-3.03902 5.05876,-5.03005 8.63631,-5.24821 4.94934,-0.30182 9.5994,3.1423 10.86768,8.04925 0.36334,1.40574 0.36059,3.73787 -0.006,5.12614 -0.78961,2.98993 -2.88996,5.60234 -5.56407,6.92061 -2.39708,1.1817 -4.86788,1.46908 -7.25525,0.84386 z m 3.49749,-3.62311 c 2.23951,-0.3668 4.25641,-1.88696 5.2135,-3.92949 0.40195,-0.8578 0.44796,-1.14281 0.44796,-2.77494 0,-1.62999 -0.0463,-1.91778 -0.4458,-2.77021 -0.60734,-1.29598 -1.93331,-2.65804 -3.18977,-3.2766 -4.09457,-2.01575 -8.86942,0.37962 -9.6957,4.86399 -0.66825,3.62671 1.84854,7.26973 5.44038,7.87486 1.10277,0.18579 1.16849,0.18616 2.22943,0.0124 z"
     id="path534" />
  <path
     style="fill:#000000;stroke-width:0.16536"
     d="m 127.49227,125.17724 v -13.14609 h 1.98432 1.98431 v 13.14609 13.14609 h -1.98431 -1.98432 z"
     id="path536" />
  <path
     style="fill:#000000;stroke-width:0.16536"
     d="m 142.55719,138.40933 c -3.80834,-0.86578 -7.03955,-4.00809 -8.02263,-7.80192 -0.3319,-1.28084 -0.33612,-3.77445 -0.009,-5.16328 0.9013,-3.8235 4.13521,-6.94696 8.1295,-7.85185 4.58122,-1.03785 9.39658,1.25569 11.62472,5.53682 1.08982,2.09399 1.1528,2.59987 1.15556,9.28262 l 0.002,5.91161 h -1.81896 -1.81895 v -1.09501 -1.09501 l -0.37206,0.26598 c -0.88316,0.63135 -2.43544,1.4294 -3.43122,1.76403 -1.39258,0.46797 -3.95378,0.58381 -5.43967,0.24601 z m 3.34304,-3.71811 c 3.51019,-0.57488 5.91922,-3.57996 5.6935,-7.10222 -0.11166,-1.74248 -0.61385,-2.95136 -1.72435,-4.15083 -3.33902,-3.60654 -9.06349,-2.69305 -11.18475,1.78482 -0.48275,1.01907 -0.52666,1.24964 -0.52666,2.76536 0,1.51572 0.0439,1.74629 0.52666,2.76536 1.13812,2.40251 3.30801,3.87559 6.00504,4.07666 0.13642,0.0102 0.68118,-0.0524 1.21056,-0.13915 z"
     id="path538" />
</svg>
