<?xml version="1.0" encoding="UTF-8" standalone="no"?>
<!-- Generator: Adobe Illustrator 18.0.0, SVG Export Plug-In . SVG Version: 6.00 Build 0)  -->

<svg
   version="1.1"
   id="Capa_1"
   x="0px"
   y="0px"
   viewBox="0 0 433.33 94.67"
   style="enable-background:new 0 0 433.33 94.67;"
   xml:space="preserve"
   sodipodi:docname="samsung.svg"
   inkscape:version="1.2.2 (732a01da63, 2022-12-09)"
   xmlns:inkscape="http://www.inkscape.org/namespaces/inkscape"
   xmlns:sodipodi="http://sodipodi.sourceforge.net/DTD/sodipodi-0.dtd"
   xmlns="http://www.w3.org/2000/svg"
   xmlns:svg="http://www.w3.org/2000/svg"><defs
   id="defs564" /><sodipodi:namedview
   id="namedview562"
   pagecolor="#ffffff"
   bordercolor="#000000"
   borderopacity="0.25"
   inkscape:showpageshadow="2"
   inkscape:pageopacity="0.0"
   inkscape:pagecheckerboard="0"
   inkscape:deskcolor="#d1d1d1"
   showgrid="false"
   inkscape:zoom="2.7923293"
   inkscape:cx="216.66499"
   inkscape:cy="47.272362"
   inkscape:window-width="1920"
   inkscape:window-height="1017"
   inkscape:window-x="-8"
   inkscape:window-y="-8"
   inkscape:window-maximized="1"
   inkscape:current-layer="Capa_1" />

<path
   style="fill:#000000;stroke-width:0.358124"
   d="m 26.322111,79.169747 c -6.425318,-1.269 -10.789208,-4.06193 -12.816825,-8.20286 -1.330972,-2.71821 -1.668412,-4.5119 -1.678441,-8.92191 l -0.0088,-3.84983 h 7.699665 7.699665 v 3.79457 c 0,4.44719 0.430766,5.49932 2.701644,6.59863 1.783546,0.8634 4.695833,0.92877 6.328836,0.14207 1.872737,-0.90219 2.576782,-2.1506 2.728659,-4.83844 0.253182,-4.48069 -1.579736,-6.37683 -11.401015,-11.79428 -8.350557,-4.60619 -12.200562,-7.78132 -14.130575,-11.6536 -0.942007,-1.89 -1.074871,-2.56885 -1.202197,-6.14249 -0.118874,-3.33641 -0.01657,-4.42946 0.603336,-6.44623 1.788962,-5.82012 6.551845,-9.2888 14.456344,-10.52815 3.299114,-0.51726 11.176311,-0.18283 14.041364,0.59615 7.585682,2.06246 10.921173,6.56261 10.936687,14.75543 l 0.0056,2.95453 h -7.162479 -7.16248 l -5.56e-4,-2.41734 c -9.69e-4,-4.21084 -1.635771,-6.20746 -5.276959,-6.44488 -3.689364,-0.24056 -5.824327,1.77223 -5.824327,5.49102 0,3.35167 1.854622,5.11412 9.932637,9.43902 9.855005,5.27629 14.245504,8.90584 15.836548,13.09181 1.568712,4.1272 1.330409,11.83186 -0.487371,15.75745 -1.831532,3.9553 -5.673119,6.80537 -11.135918,8.26175 -2.982647,0.79518 -11.426284,1.00081 -14.683082,0.35758 z"
   id="path566" /><path
   style="fill:#000000;stroke-width:0.358124"
   d="m 63.526745,76.907117 c 0.102889,-0.34469 0.677132,-3.28578 1.276095,-6.53576 0.598964,-3.24997 1.880474,-10.17967 2.847801,-15.39933 0.967327,-5.21966 2.343817,-12.7134 3.058868,-16.65276 0.71505,-3.93937 1.446766,-7.88768 1.626034,-8.77404 0.179269,-0.88636 0.697021,-3.66617 1.150561,-6.17736 l 0.824617,-4.5658 12.909849,-2.8e-4 12.90985,-2.8e-4 0.82435,4.56608 c 0.45339,2.51135 1.1157,6.09706 1.47179,7.96826 0.35609,1.8712 1.15908,6.2224 1.78443,9.66935 0.62534,3.44694 1.67388,9.16797 2.33008,12.7134 0.65621,3.54542 1.7778,9.66934 2.49244,13.60871 0.71464,3.93936 1.43406,7.84739 1.59871,8.6845 l 0.29937,1.52203 h -7.64943 c -7.639716,0 -7.64965,-0.001 -7.83256,-0.80578 -0.192693,-0.8478 -1.053536,-6.58927 -1.624276,-10.83325 -0.712912,-5.30117 -3.160462,-21.8078 -4.832233,-32.58928 -0.842168,-5.43125 -1.237783,-8.18948 -1.245628,-8.6845 -0.01505,-0.95009 -0.700172,-0.38865 -0.874024,0.71624 -0.349612,2.2219 -3.564213,23.51702 -4.338359,28.73945 -0.291975,1.96968 -1.086342,7.28782 -1.765259,11.81809 -0.678916,4.53027 -1.340449,9.00234 -1.470073,9.93794 l -0.235679,1.70109 h -7.862197 c -7.320323,0 -7.849305,-0.0432 -7.675127,-0.62672 z"
   id="path568" /><path
   style="fill:#000000;stroke-width:0.358124"
   d="m 65.984339,77.268677 c -2.423793,-0.13768 -2.418073,-0.13036 -1.891313,-2.42077 0.181198,-0.78787 2.436202,-12.87456 5.01112,-26.8593 2.574918,-13.98474 4.851488,-26.27287 5.059043,-27.30695 l 0.377375,-1.88015 h 12.681187 12.681183 l 0.180756,0.80578 c 0.0994,0.44318 1.46486,7.81606 3.03432,16.38417 1.56945,8.56812 3.90852,21.32264 5.19792,28.34339 1.2894,7.02075 2.34437,12.88674 2.34437,13.03553 0,0.28119 -14.607263,3.6e-4 -14.893956,-0.28616 -0.08949,-0.0895 -1.278635,-7.80071 -2.642543,-17.13603 -1.363908,-9.33532 -3.069578,-21.00221 -3.790378,-25.92641 -0.7208,-4.92421 -1.429226,-9.2721 -1.57428,-9.662 -0.261765,-0.7036 -0.266616,-0.70351 -0.649762,0.0124 -0.212315,0.39672 -2.094756,12.15778 -4.1832,26.1357 -2.088445,13.97792 -3.877134,25.777 -3.974865,26.22018 -0.175324,0.79504 -0.247981,0.80486 -5.453197,0.73677 -2.901528,-0.0379 -6.282729,-0.12622 -7.51378,-0.19615 z"
   id="path570" /><path
   style="fill:#000000;stroke-width:0.358124"
   d="m 123.10719,71.356667 c 0.0504,-3.39796 0.33251,-16.08919 0.62694,-28.20273 0.29443,-12.11354 0.53522,-22.54838 0.5351,-23.18853 l -2.2e-4,-1.1639 h 11.75962 11.75961 l 0.9687,5.99858 c 1.02734,6.36167 2.7038,16.79749 4.73191,29.45569 1.48293,9.25548 1.56413,9.66935 1.89719,9.66935 0.1438,0 0.69171,-2.69936 1.21758,-5.99858 0.52588,-3.29921 1.60231,-10.02747 2.39208,-14.95167 0.78977,-4.92421 1.92651,-12.01506 2.52609,-15.75746 0.59957,-3.74239 1.16846,-7.16695 1.26419,-7.61013 l 0.17406,-0.80578 h 11.81127 11.81127 l 0.001,4.20796 c 7.1e-4,2.31437 0.15281,10.49303 0.33777,18.17479 0.18496,7.68176 0.43727,19.00295 0.56067,25.15821 l 0.22443,11.19137 h -7.18744 -7.18745 l -8.2e-4,-18.17479 c -9.1e-4,-19.87453 -0.31911,-34.82756 -0.74115,-34.82756 -0.14819,0 -0.37874,0.68492 -0.51233,1.52203 -0.26891,1.68517 -3.43047,18.85711 -4.30225,23.36759 -0.30455,1.57574 -1.43624,7.69966 -2.51485,13.60871 -1.07862,5.90904 -2.13257,11.58979 -2.34211,12.62387 l -0.38099,1.88015 h -7.24401 -7.244 l -0.81272,-4.56608 c -0.78345,-4.40165 -2.69019,-14.74244 -3.8135,-20.68166 -0.29803,-1.57574 -1.35383,-7.29677 -2.34622,-12.7134 -2.35908,-12.87623 -2.82309,-15.04121 -3.22375,-15.04121 -0.20151,0 -0.33399,6.77396 -0.33443,17.10042 -3.9e-4,9.40523 -0.10684,21.33076 -0.23654,26.50118 l -0.2358,9.40075 -7.01547,4.7e-4 -7.01548,4.7e-4 z"
   id="path572" /><path
   style="fill:#000000;stroke-width:0.358124"
   d="m 217.91842,79.092837 c -8.70496,-1.40052 -14.09691,-5.96816 -15.23284,-12.90409 -0.18777,-1.14651 -0.34234,-3.41409 -0.34348,-5.03908 l -0.002,-2.95452 h 7.47272 7.47273 l 0.17051,3.54107 c 0.26534,5.51022 1.8071,7.33694 6.19241,7.33694 2.67571,0 4.37353,-0.85291 5.28178,-2.65335 0.69292,-1.37359 0.83184,-4.41685 0.26918,-5.89676 -0.68679,-1.8064 -3.7723,-4.2743 -9.15873,-7.32548 -7.78776,-4.41143 -10.9181,-6.54063 -13.13261,-8.93257 -2.41253,-2.60582 -3.33455,-4.45046 -3.91172,-7.82595 -0.89944,-5.2603 0.72674,-11.01389 3.9756,-14.06603 3.52256,-3.30928 7.64488,-4.66396 14.94307,-4.91061 10.33028,-0.34911 16.48685,2.22025 19.35193,8.07627 0.82713,1.69059 0.98382,2.5361 1.11758,6.03047 l 0.15556,4.06419 h -6.98138 -6.98139 l -0.171,-2.66462 c -0.26599,-4.14456 -1.94341,-5.92645 -5.58143,-5.92902 -3.6159,-0.002 -5.43991,1.8301 -5.44227,5.46805 -0.001,1.92377 0.10073,2.17794 1.4695,3.66288 1.64124,1.78054 4.14313,3.43497 9.45195,6.25032 12.23007,6.48578 15.54936,10.49834 15.56693,18.81825 0.0166,7.84868 -2.25209,12.50352 -7.48097,15.34943 -3.35422,1.8256 -6.12962,2.41457 -12.02533,2.55192 -2.95452,0.0688 -5.85532,0.0474 -6.44623,-0.0477 z"
   id="path574" /><path
   style="fill:#000000;stroke-width:0.358124"
   d="m 270.20452,78.283227 c -6.94062,-1.74528 -10.98981,-5.87042 -11.98457,-12.20936 -0.21947,-1.39853 -0.36638,-11.29885 -0.368,-24.80008 l -0.003,-22.47228 h 7.34154 7.34154 v 23.01505 c 0,26.10263 -0.15503,24.6959 2.90272,26.33818 1.29254,0.6942 1.92211,0.81117 3.52245,0.65445 2.36006,-0.23112 3.52226,-1.01674 4.58715,-3.10076 l 0.80578,-1.57694 v -22.66499 -22.66499 h 7.16247 7.16248 v 23.08137 c 0,15.59566 -0.12945,23.69685 -0.39916,24.97915 -1.24923,5.93941 -5.11332,9.66376 -11.83849,11.4104 -3.57318,0.92802 -12.56184,0.934 -16.2332,0.0108 z"
   id="path576" /><path
   style="fill:#000000;stroke-width:0.358124"
   d="m 315.5072,47.809547 v -29.00804 h 10.70262 10.70263 l 0.71563,2.5964 c 0.39359,1.42802 1.80529,6.30298 3.1371,10.83325 1.33181,4.53027 2.6223,8.96205 2.86775,9.84841 0.24546,0.88636 1.20319,4.19005 2.12831,7.34154 0.92512,3.15149 2.30171,7.88139 3.05909,10.5109 1.3592,4.71888 1.61027,5.35961 1.96227,5.00762 0.1478,-0.1478 -0.18367,-21.74156 -0.63815,-41.57204 l -0.10465,-4.56608 h 7.08613 7.08613 v 29.01353 29.01354 l -10.28501,-0.095 -10.28501,-0.095 -7.17354,-23.70259 c -3.94544,-13.03642 -7.31622,-23.83385 -7.49063,-23.9943 -0.29875,-0.27484 -0.22795,6.61853 0.37311,36.32645 l 0.23367,11.5495 h -7.03873 -7.03872 z"
   id="path578" /><path
   style="fill:#000000;stroke-width:0.358124"
   d="m 395.5479,78.235507 c -3.63764,-0.56608 -6.81877,-1.70897 -9.18214,-3.29888 -2.63091,-1.76989 -4.21269,-3.71472 -5.37846,-6.61291 -0.8237,-2.04778 -0.83421,-2.2554 -0.94524,-18.68632 -0.0658,-9.73751 0.0336,-17.55235 0.24005,-18.87861 1.04405,-6.70618 5.65111,-11.2031 13.19753,-12.88202 2.01521,-0.44834 3.91613,-0.54768 8.25235,-0.43127 5.00497,0.13436 5.96366,0.26372 8.58658,1.15856 7.44075,2.53851 10.79936,7.68178 10.82799,16.58162 l 0.007,2.23828 h -7.34154 -7.34155 v -2.87926 c 0,-4.47684 -1.33606,-6.38564 -4.83467,-6.90716 -2.92231,-0.43562 -5.57149,0.75644 -6.69762,3.01374 -0.54599,1.09443 -0.61131,2.90189 -0.62672,17.34292 -0.0196,18.3612 -0.0858,17.91179 2.86064,19.42264 3.62346,1.85802 8.35798,0.27288 9.29864,-3.11323 0.19463,-0.70058 0.35476,-3.57026 0.35586,-6.37706 l 0.002,-5.10326 h -3.04406 -3.04405 v -4.11843 -4.11842 h 10.20653 10.20654 l -0.002,9.40075 c -0.001,5.17041 -0.15907,10.35944 -0.35094,11.53118 -1.00664,6.14729 -5.7367,10.68745 -12.71851,12.20788 -3.14008,0.68382 -9.69994,0.95034 -12.53434,0.50926 z"
   id="path580" /></svg>
