<?xml version="1.0" encoding="UTF-8" standalone="no"?>
<!-- Generator: Adobe Illustrator 18.0.0, SVG Export Plug-In . SVG Version: 6.00 Build 0)  -->

<svg
   version="1.1"
   id="Capa_1"
   x="0px"
   y="0px"
   viewBox="0 0 346.67 320.67"
   style="enable-background:new 0 0 346.67 320.67;"
   xml:space="preserve"
   sodipodi:docname="xiaomi.svg"
   inkscape:version="1.2.2 (732a01da63, 2022-12-09)"
   xmlns:inkscape="http://www.inkscape.org/namespaces/inkscape"
   xmlns:sodipodi="http://sodipodi.sourceforge.net/DTD/sodipodi-0.dtd"
   xmlns="http://www.w3.org/2000/svg"
   xmlns:svg="http://www.w3.org/2000/svg"><defs
   id="defs7" /><sodipodi:namedview
   id="namedview5"
   pagecolor="#ffffff"
   bordercolor="#000000"
   borderopacity="0.25"
   inkscape:showpageshadow="2"
   inkscape:pageopacity="0.0"
   inkscape:pagecheckerboard="0"
   inkscape:deskcolor="#d1d1d1"
   showgrid="false"
   inkscape:zoom="1.3050799"
   inkscape:cx="165.5071"
   inkscape:cy="86.584735"
   inkscape:window-width="1920"
   inkscape:window-height="1017"
   inkscape:window-x="-8"
   inkscape:window-y="-8"
   inkscape:window-maximized="1"
   inkscape:current-layer="Capa_1" />

<path
   style="fill:#000000;stroke-width:0.383118"
   d="m 55.013765,253.08106 c -0.35956,-0.35956 -0.46355,-17.59062 -0.46355,-76.80556 0,-75.9247 0.004,-76.344227 0.76548,-76.751659 1.00101,-0.535726 135.930005,-0.365035 136.767255,0.173016 0.31236,0.20074 0.82957,0.394743 1.14935,0.431113 0.31978,0.0364 1.35723,0.26671 2.30545,0.51188 0.94821,0.24516 1.98263,0.51208 2.29871,0.59315 0.31607,0.0811 0.66088,0.18048 0.76623,0.22091 0.10536,0.0404 0.36397,0.1021 0.57468,0.13704 0.21072,0.0349 1.05069,0.35987 1.8666,0.72205 0.81591,0.36217 1.65758,0.6585 1.87037,0.6585 0.49971,0 3.07387,1.56136 3.44063,2.08693 0.15481,0.22184 0.28412,0.27923 0.28734,0.12755 0.005,-0.23317 1.96198,0.90567 3.26272,1.89865 0.2109,0.161 1.07292,0.79784 1.91559,1.41519 1.85671,1.36026 9.00293,8.54534 9.00293,9.05189 0,0.19877 0.32172,0.68312 0.71493,1.07633 1.04807,1.04807 4.92571,9.18497 5.22644,10.96726 0.14195,0.84126 0.36689,1.70328 0.49987,1.9156 0.40946,0.65374 0.5199,1.36285 1.0447,6.70748 0.39347,4.00722 0.51368,17.38415 0.5337,59.39387 0.0231,48.48215 -0.0373,54.3119 -0.57055,55.07325 l -0.59641,0.85149 H 210.3427 c -12.97081,0 -17.44925,-0.11572 -17.79328,-0.45975 -0.35275,-0.35275 -0.46008,-11.83147 -0.4612,-49.32648 -0.001,-41.23628 -0.0893,-49.37523 -0.56415,-52.12324 -0.55686,-3.22271 -1.63406,-6.76074 -2.35467,-7.7338 -0.20497,-0.27678 -0.70928,-1.16695 -1.12069,-1.97815 -0.90253,-1.77959 -5.0236,-6.37901 -5.71558,-6.37901 -0.2716,0 -0.72236,-0.27537 -1.00168,-0.61194 -0.62914,-0.75806 -5.34903,-3.04063 -6.00319,-2.90317 -0.2634,0.0554 -0.4789,-0.0362 -0.4789,-0.2035 0,-0.16728 -0.38791,-0.33612 -0.86202,-0.37522 -2.61674,-0.21577 -4.90471,-0.63759 -4.57224,-0.84296 0.20951,-0.12942 -16.79992,-0.19114 -37.79873,-0.13715 -37.647585,0.0968 -38.194335,0.10898 -39.233225,0.87349 l -1.05358,0.77532 -0.006,59.6592 c -0.005,47.32533 -0.10581,59.85722 -0.49013,60.617 l -0.4845,0.9578 -17.43598,0.0996 c -13.24215,0.0756 -17.54749,-0.0119 -17.89954,-0.36396 z"
   id="path182" /><path
   style="fill:#000000;stroke-width:0.383118"
   d="m 122.61309,252.83636 c -0.58252,-0.64367 -0.63406,-4.40628 -0.63406,-46.29053 v -45.58991 l 0.88671,-0.83302 c 0.88455,-0.83098 0.93012,-0.83298 18.67702,-0.82027 16.82976,0.0121 17.83685,0.0516 18.65232,0.73187 l 0.86202,0.71912 v 45.87055 c 0,43.23694 -0.0385,45.89977 -0.67046,46.3795 -0.53518,0.40625 -4.34971,0.51141 -18.90497,0.52113 -17.1875,0.0115 -18.27093,-0.028 -18.86858,-0.68844 z"
   id="path184" /><path
   style="fill:#000000;stroke-width:0.383118"
   d="m 260.57208,253.12318 c -0.63501,-0.36985 -0.67015,-4.41616 -0.66459,-76.51623 0.004,-47.27853 0.14345,-76.34349 0.36894,-76.700396 0.31228,-0.494281 2.77539,-0.589663 17.60624,-0.681792 16.88921,-0.104914 17.25913,-0.09115 18.02074,0.670457 0.77611,0.776111 0.77757,0.919961 0.77757,76.607621 0,68.42559 -0.0588,75.88885 -0.60205,76.4321 -0.5297,0.52971 -2.65875,0.60065 -17.71922,0.5904 -10.91185,-0.007 -17.36023,-0.15322 -17.78763,-0.40216 z"
   id="path186" /></svg>
